PathFileType	4	(X/Y/Z)	Patient4_TMGait_0pt8_01_left_09.trc.trc
DataRate	CameraRate	NumFrames	NumMarkers	Units	OrigDataRate	OrigDataStartFrame	OrigNumFrames
90.909090909091	90.909090909091	6	33	mm	90.909090909091	106	       141
Frame#	Time	Sacral			L.Shoulder			Chest			R.Shoulder			Neck			R.ASIS			L.ASIS			R.Thigh.Superior			R.Thigh.Lateral			R.Thigh.Inferior			R.Patella			L.Thigh.Superior			L.Thigh.Lateral			L.Thigh.Inferior			L.Patella			L.Shank.Superior			L.Shank.Lateral			L.Shank.Inferior			R.Shank.Superior			R.Shank.Lateral			R.Shank.Inferior			R.Heel			R.Midfoot.Superior			R.Midfoot.Lateral			R.Toe			L.Heel			L.Midfoot.Lateral			L.Midfoot.Superior			L.Toe			L.Elbow			L.Wrist			R.Elbow			R.Wrist			
		X1	Y1	Z1	X2	Y2	Z2	X3	Y3	Z3	X4	Y4	Z4	X5	Y5	Z5	X6	Y6	Z6	X7	Y7	Z7	X8	Y8	Z8	X9	Y9	Z9	X10	Y10	Z10	X11	Y11	Z11	X12	Y12	Z12	X13	Y13	Z13	X14	Y14	Z14	X15	Y15	Z15	X16	Y16	Z16	X17	Y17	Z17	X18	Y18	Z18	X19	Y19	Z19	X20	Y20	Z20	X21	Y21	Z21	X22	Y22	Z22	X23	Y23	Z23	X24	Y24	Z24	X25	Y25	Z25	X26	Y26	Z26	X27	Y27	Z27	X28	Y28	Z28	X29	Y29	Z29	X30	Y30	Z30	X31	Y31	Z31	X32	Y32	Z32	X33	Y33	Z33	

106	10.435000000000	867.252178248488	1009.755384471064	539.845068599794	1029.340626797773	1430.093505472192	336.889013310528	1146.085730088997	1365.311114283539	490.862756501150	1078.960686066536	1443.188754307189	670.069929808330	1030.887482563895	1497.043026890114	491.965994919444	1098.623505705412	949.624276839643	647.074498779395	1071.337167504270	961.828222003819	372.922834685512	1120.829711031451	742.190640184875	621.871985008833	1027.225612736869	637.858031046448	679.589459070055	1100.952081319516	580.020662152804	603.266212366431	1092.118098247476	493.847095873974	608.057145078755	1164.087445199924	794.660895808763	397.600243574007	1123.330609958750	664.761878293702	313.830350672022	1237.795075293228	611.149666212310	365.691787456539	1259.425110191226	525.636458890349	354.625128194893	1205.189157055785	450.707572070443	347.093294587570	1072.911494560595	381.700147344675	303.789884348716	1092.878864242781	249.746698382766	350.805458185503	1062.988915689781	406.686492292952	610.684821083125	985.337427570479	303.303255807878	664.976678241096	1030.812311759821	208.947941215968	601.985956887254	895.969973075052	45.936394321935	557.113874408569	1066.317141662787	97.670143633395	604.572209355635	975.001448541887	37.790725807205	636.580004845566	1183.601896132255	41.270918782538	638.285940467510	924.481067601087	145.203385277890	396.981869302587	982.770285816491	116.093057766576	309.894915889733	1085.859165165182	143.432234513269	325.016988257809	1180.800802280241	51.245064892753	283.312883183909	988.782483466407	1070.511280506030	247.035591095931	1095.149877737083	830.891967663010	256.401094604493	1107.384600975521	1098.914594036385	803.999713130120	1286.768654532465	911.881266556036	784.704511188363	
107	10.446000000000	866.113837358979	1009.876019173174	540.422549378261	1028.119121302015	1429.945224824982	337.306796162743	1145.253125922878	1365.015664345333	490.882297686645	1078.793522099054	1442.806612997907	670.394057185143	1030.246726094862	1496.822834341165	492.455797572801	1097.532232293784	949.339307098570	647.177964948874	1069.720191893480	961.401032009308	372.977392649250	1117.317902644484	741.364797901678	621.901742755482	1022.349735049181	637.849905928735	679.764409398790	1095.096463658266	579.175783653595	603.509444948598	1085.167456243894	493.380563299427	608.176394954391	1162.771770009020	795.616933420007	397.834717373857	1123.225952520424	665.171352711205	313.965032259417	1237.844353580558	612.738058548214	366.042648905159	1260.907611564493	528.762400995528	354.895230051406	1210.352540776402	452.718336625504	347.121093805768	1082.562746783989	376.275372245290	303.502293424993	1110.381508881446	245.470698129163	350.161471761474	1055.603206940360	406.453806864843	610.788589638226	977.530944249862	303.406937061602	665.104645113940	1022.600159143169	208.876550294241	602.079391035770	887.165637211343	46.009395841043	557.191481039597	1057.565044250107	97.666290609962	604.634886786635	966.164549996575	37.776092746642	636.573134537963	1174.731803469488	41.169123968521	638.334427672741	948.802210077066	130.974796667676	396.144709887303	1008.551475995633	105.696192489339	308.905225779879	1109.846223731487	138.897719272943	324.061104083717	1209.982695455683	52.555780988522	281.983752429803	982.088454809997	1070.838339109810	248.159998984167	1073.329953916494	825.213406406792	258.387464839543	1117.392785839204	1100.033035251990	804.594933007399	1306.862501362916	923.922853108261	782.238711023722	
108	10.457000000000	865.038430940850	1009.895070163284	540.813646046039	1027.083053468654	1429.715782649576	337.597741490679	1144.513567236815	1364.605767651276	490.828980917167	1078.611250812325	1442.303509765156	670.608004250126	1029.662767019720	1496.483659374208	492.827962046489	1096.432610464480	948.925691987176	647.200054562671	1068.276862511159	960.831300071552	372.900258422116	1113.811311279727	740.404339242907	621.956581304329	1017.399417896601	637.781100294050	679.880725768570	1089.180022553666	578.249682867904	603.718875322724	1078.167480916061	492.847127897235	608.246038143486	1161.138475799193	795.904690136106	397.987627190684	1122.692445553853	665.195070945221	313.973456066833	1237.030702725684	613.481641485862	366.538385614713	1261.414520760662	531.249184456308	355.360761566241	1214.682741918969	454.440878089820	347.301591342364	1092.165873989251	370.622856610960	303.008142460927	1127.871124896462	241.522711223783	349.481924155736	1048.145375736331	406.193918418679	610.856504846894	969.674081254640	303.472515120378	665.170190494210	1014.335164585913	208.775168326674	602.135695320840	878.349106838790	46.026507844939	557.272710288706	1048.796475929192	97.671930306886	604.713155519497	957.307809680401	37.745028600869	636.553912017479	1165.850222778062	41.099729429144	638.391454199333	973.857682550813	117.362433006873	394.940839586707	1035.099378674190	95.888481952594	307.772815405902	1134.159436214882	134.920920831751	323.144520346002	1239.267877894706	54.703542843439	281.168362200116	975.286047210095	1071.291078327979	249.085917326461	1051.828419762720	820.913234947740	260.242247528344	1127.054405991215	1101.318592550865	804.872799698521	1326.030423451861	936.850757205174	779.404512475078	
109	10.468000000000	864.042126946835	1009.821506454939	541.025429637021	1026.234816506862	1429.404180725242	337.754142124597	1143.877533758318	1364.082497731307	490.692291820542	1078.435546909554	1441.697272089733	670.697748474538	1029.141574106747	1496.029707265232	493.072118445198	1095.339164062117	948.384811321719	647.146932249157	1066.993251100103	960.122833628170	372.700281204390	1110.302028065083	739.301972592932	622.033746207212	1012.366000698836	637.658500753896	679.940310262036	1083.189129890439	577.246138361439	603.891604861627	1071.109653442292	492.245604645391	608.266437938237	1159.205134811504	795.537405233160	398.070844927594	1121.718179899110	664.854078490559	313.833530626021	1235.398262425743	613.403056411510	367.160437573527	1261.007961092791	533.106152259047	356.017058884959	1218.194809296331	455.905647390327	347.639517368434	1101.703934762350	364.897151623230	302.307664840247	1145.199850629337	238.058159056933	348.814964190765	1040.606346054671	405.910172680993	610.892385594194	961.749922203687	303.502443172309	665.175032702524	1006.008763752668	208.645893038370	602.160375091069	869.514246618336	45.982657816664	557.357883259600	1039.999106107418	97.676779028519	604.795586103754	948.427585520464	37.696205661399	636.525711537305	1156.957074044093	41.066827166553	638.458950826278	999.388980484653	104.663696848659	393.418189695705	1062.194963299242	86.897792745203	306.576819235818	1158.601126702733	131.668596047130	322.338999212755	1268.422640835057	57.785763065043	281.016397998622	968.372575401028	1071.882011734143	249.828685494186	1030.825745283946	817.897395860949	261.965624557008	1136.335884699654	1102.755208890786	804.836208162927	1344.165839297955	950.602696373947	776.236571627293	
110	10.479000000000	863.137491321067	1009.664100142912	541.063942798905	1025.573522234196	1429.009279598375	337.770478773646	1143.351518718588	1363.446910697143	490.464253951710	1078.283550006302	1441.003874778058	670.651628555997	1028.686251596136	1495.465021728247	493.180243075703	1094.267894671380	947.717117874420	647.023175022235	1065.855519455766	959.283296508265	372.383398152170	1106.784662616137	738.055233026680	622.119075630551	1007.253207022364	637.487488227646	679.940141206542	1077.119782206379	576.172689028596	604.015373363904	1063.997773614979	491.576610387029	608.232810450813	1156.999737528812	794.551257051480	398.093435528623	1120.286249078718	664.150740415778	313.535112211623	1233.026919959527	612.559371106657	367.876658044368	1259.781518059952	534.365448870108	356.849107496888	1220.927714798830	457.141737507778	348.123490958311	1111.125126295043	359.252237491048	301.424486225367	1162.183217410170	235.197954290663	348.211508983510	1032.988941262141	405.603547628405	610.895793509984	953.752960727857	303.499968838941	665.120902890414	997.618677556625	208.489932035606	602.156977217611	860.656520896879	45.877283386782	557.445689189067	1031.161114474990	97.670631893277	604.869134521267	939.521210575574	37.629699196645	636.493216294036	1148.052042943871	41.072781711165	638.535818414499	1025.062101874405	93.131477945412	391.664349199817	1089.525444632069	78.910743595853	305.414794007556	1182.904376394189	129.261352426745	321.713573902326	1297.142625383622	61.834378116836	281.629524326259	961.360969155644	1072.623156961257	250.400546509283	1010.462451121426	816.046029878157	263.566944100797	1145.210761073421	1104.319899374237	804.490885531209	1361.173935673134	965.096520157960	772.775258276464	
111	10.490000000000	862.333142431837	1009.429426550043	540.932945317968	1025.094052770335	1428.529438704790	337.643205522149	1142.937525359239	1362.700365821994	490.139095379849	1078.166865975472	1440.236454384520	670.460774248583	1028.296733876248	1494.793177913644	493.146389828077	1093.235695395484	946.922101502625	646.829624680615	1064.852791367641	958.323578241367	371.952380812847	1103.259494318515	736.666852118158	622.185615430553	1002.081936812658	637.270492469952	679.872870805583	1070.983303400714	575.039425665962	604.068706238322	1056.852447508583	490.841166235970	608.134931034917	1154.565292842660	793.006217356610	398.061900019115	1118.402816604476	663.085662332189	313.076183024196	1230.033190539278	611.040258894471	368.643757931576	1257.858092915100	535.078676533760	357.830704807471	1222.941777301037	458.170472030839	348.726126506255	1120.334839351147	353.828883902729	300.409386688041	1178.598789857124	233.013928728422	347.721771167868	1025.312963153507	405.271082301828	610.861775072339	945.694039660621	303.468163884448	665.010826116621	989.171424383379	208.306215042291	602.126180236615	851.773506130923	45.714599123388	557.533312694884	1022.273265808338	97.644875722841	604.921807787877	930.587583644437	37.547071862183	636.462079869871	1139.134701006438	41.117781608213	638.618539604232	1050.468311439496	82.954985356328	389.805923435519	1116.676952174490	72.056284358271	304.397123652014	1206.727063108009	127.757754015709	321.329435124206	1325.045575247793	66.801048742173	283.045186049883	954.280415643109	1073.522736170943	250.811832547724	990.838321664393	815.222001102839	265.062385502246	1153.659507093154	1105.984441256056	803.845657635144	1376.974008023841	980.231656103241	769.064953941394	
